<svg height="478pt" viewBox="0 -59 478.23296 478" width="478pt" xmlns="http://www.w3.org/2000/svg"><path d="m478.226562 130.082031c-.320312-40.757812-13.878906-110.152343-101.128906-117.03125-85.90625-6.804687-121.703125 68.039063-122.078125 68.855469-13.148437 29.425781-14.664062 51.203125-12.113281 70.824219l-16.210938 16.210937c-.796874.796875-1.246093 1.878906-1.246093 3.007813 0 1.128906.445312 2.210937 1.246093 3.007812l22.039063 22.039063h-52.304687l-20.210938-35.828125c-.84375-1.496094-2.480469-2.335938-4.214844-2.132813-1.707031.207032-3.121094 1.421875-3.589844 3.078125l-28.902343 103.089844-32.488281-146.292969c-.398438-1.792968-1.898438-3.125-3.722657-3.3125-1.851562-.167968-3.5625.824219-4.316406 2.496094l-32.355469 72.253906h-49.863281c-2.355469 0-4.257813 1.90625-4.257813 4.257813 0 2.351562 1.902344 4.253906 4.257813 4.253906h52.621094c1.679687 0 3.203125-.984375 3.886719-2.515625l28.230468-63.042969 33.375 150.300781c.425782 1.902344 2.09375 3.273438 4.042969 3.332032.035156.003906.078125.003906.113281.003906 1.90625 0 3.582032-1.265625 4.097656-3.109375l30.710938-109.542969 16.390625 29.0625c.757813 1.339844 2.167969 2.164063 3.710937 2.164063h57.433594l-24.6875 24.683593c-.796875.796876-1.246094 1.882813-1.246094 3.007813 0 1.128906.445313 2.214844 1.246094 3.007813l26.632813 26.632812c.804687.804688 1.847656 1.195312 2.894531 1.226562-.417969 3.332032-.894531 6.722657-1.507812 10.261719-5.058594 29.214844 6.203124 58.476563 28.703124 74.539063 11.402344 8.136718 24.46875 12.214844 38.21875 12.214844 13.105469 0 26.835938-3.703126 40.335938-11.117188 31.035156-17.050781 53.464844-52.5625 71.648438-81.761719 26.101562-41.90625 44.96875-88.035156 44.609374-138.125zm0 0" fill="#e6e7e8"/><path d="m364 4.53125c-83.933594-6.609375-117.863281 66.347656-117.863281 66.347656-13.265625 29.679688-14.449219 50.917969-11.535157 70.644532l3.332032-3.332032c3.109375-3.109375 8.15625-3.109375 11.265625 0l24.992187 24.992188 24.992188-24.992188c3.113281-3.109375 8.15625-3.109375 11.269531 0l15.363281 15.363282c3.113282 3.113281 3.113282 8.15625 0 11.269531l-24.992187 24.992187 24.992187 24.992188c3.113282 3.113281 3.113282 8.15625 0 11.269531l-15.363281 15.363281c-3.113281 3.109375-8.15625 3.109375-11.269531 0l-24.992188-24.992187-24.992187 24.992187c-.15625.15625-.335938.269532-.503907.410156-.5 6.421876-1.304687 13.183594-2.558593 20.445313-9.550781 55.128906 41.417969 103.914063 101.011719 71.175781 33.78125-18.558594 75.675781-85.082031 94.316406-124.011718 3.8125-7.960938 14.359375-33.570313 17.390625-59.277344 7.824219-66.332032-8.175781-138.824219-94.855469-145.652344zm0 0" fill="#6dc9f7"/><g fill="#3a2c60"><path d="m242.359375 195.019531 5.203125-5.203125-7.929688-7.933594c.984376 4.214844 1.910157 8.578126 2.726563 13.136719zm0 0"/><path d="m443.195312 205.851562c-1.984374-.960937-4.382812-.109374-5.335937 1.882813-19.246094 40.195313-60.710937 104.695313-92.632813 122.230469-24.773437 13.609375-50.203124 13.394531-69.773437-.578125-19.9375-14.226563-29.898437-40.292969-25.375-66.40625 1.582031-9.109375 2.480469-17.488281 2.917969-25.332031l-3.792969 3.792968c-1.3125 1.3125-2.96875 2.035156-4.675781 2.238282-.5 5.675781-1.234375 11.617187-2.332032 17.933593-5.046874 29.125 6.183594 58.285157 28.609376 74.289063 11.351562 8.101562 24.363281 12.164062 38.066406 12.164062 13.066406 0 26.753906-3.695312 40.207031-11.085937 35.359375-19.425781 77.648437-87.464844 96-125.792969.953125-1.992188.109375-4.378906-1.882813-5.335938zm0 0"/><path d="m439.027344 35.675781c-17.035156-20.746093-42.171875-32.566406-74.714844-35.132812-85.628906-6.71875-121.453125 67.898437-121.828125 68.707031-14.261719 31.910156-14.824219 54.820312-11.347656 75.742188l6.800781-6.800782c.078125-.078125.171875-.132812.253906-.207031-2.257812-18.335937-.582031-38.207031 11.574219-65.414063 1.34375-2.878906 33.746094-70.359374 113.921875-64.050781 30.289062 2.390625 53.554688 13.234375 69.15625 32.234375 25.210938 30.710938 25.902344 76.207032 22.042969 108.960938-.253907 2.199218 1.3125 4.1875 3.503906 4.441406 2.210937.285156 4.183594-1.308594 4.441406-3.503906 4.042969-34.304688 3.191407-82.09375-23.804687-114.976563zm0 0"/><path d="m447.769531 198.210938c-.457031 0-.925781-.078126-1.382812-.246094-2.074219-.761719-3.132813-3.058594-2.375-5.132813 2.394531-6.523437 5.773437-16.65625 8.257812-27.890625.472657-2.160156 2.617188-3.53125 4.765625-3.042968 2.15625.476562 3.519532 2.609374 3.042969 4.765624-2.582031 11.667969-6.082031 22.167969-8.5625 28.921876-.585937 1.621093-2.121094 2.625-3.746094 2.625zm0 0"/></g><path d="m349.550781 64.519531c-48.769531-4.269531-68.488281 42.871094-68.488281 42.871094-7.589844 18.898437-2.890625 32.597656 3.652344 45.277344l14.480468-14.480469c3.113282-3.109375 8.15625-3.109375 11.269532 0l15.363281 15.363281c3.113281 3.113281 3.113281 8.15625 0 11.269531l-24.992187 24.992188 24.992187 24.992188c3.113281 3.113281 3.113281 8.15625 0 11.269531l-15.363281 15.363281c-3.113282 3.109375-8.15625 3.109375-11.269532 0l-14.660156-14.660156c-1.101562 1.414062-2.21875 2.832031-3.46875 4.304687-22.171875 26.105469 12.671875 71.796875 47.300782 50.640625 23.644531-14.441406 44.640624-50.449218 70.996093-97.558594 23.425781-41.871093 10.96875-114.320312-49.8125-119.644531zm0 0" fill="#d4fbff"/><path d="m404.332031 96.308594c-7.847656-14.832032-23.660156-33.078125-54.433593-35.773438-51.144532-4.527344-72.320313 44.8125-72.527344 45.3125-.007813.015625-.011719.035156-.019532.054688-8.429687 20.980468-2.625 36.371094 4.390626 49.734375l5.933593-5.933594c-5.933593-11.769531-9.660156-23.984375-2.914062-40.785156.902343-2.140625 19.398437-44.367188 64.4375-40.414063 27.183593 2.378906 41.140625 18.472656 48.0625 31.546875 12.753906 24.109375 12.1875 57.898438-1.394531 82.160157-26.671876 47.671874-47.273438 82.46875-69.589844 96.101562-16.5 10.074219-31.75 2.667969-39.785156-6.738281-8.355469-9.769531-12.664063-25.796875-2.382813-37.902344 1.164063-1.367187 2.238281-2.707031 3.28125-4.03125l-5.710937-5.710937c-1.15625 1.496093-2.332032 2.996093-3.664063 4.5625-13.316406 15.675781-8.089844 36.015624 2.398437 48.28125 6.65625 7.777343 17.257813 14.464843 29.675782 14.464843 6.402344 0 13.285156-1.78125 20.363281-6.101562 24.027344-14.679688 44.265625-48.738281 72.40625-99.019531 14.820313-26.5 15.429687-63.433594 1.472656-89.808594zm0 0" fill="#3a2c60"/><path d="m245.125 192.257812 2.4375-2.441406-5.324219-5.324218h-58.722656l-20.28125-35.957032c-.789063-1.402344-2.324219-2.203125-3.960937-2.003906-1.605469.191406-2.933594 1.332031-3.375 2.894531l-29.183594 104.066407-32.703125-147.289063c-.375-1.683594-1.785157-2.933594-3.5-3.109375-1.75-.171875-3.351563.769531-4.058594 2.34375l-32.421875 72.402344h-50.03125c-2.210938 0-4 1.792968-4 4 0 2.207031 1.789062 4 4 4h52.625c1.578125 0 3.007812-.921875 3.652344-2.363282l28.546875-63.746093 33.539062 151.050781c.402344 1.792969 1.964844 3.078125 3.796875 3.132812h.109375c1.785157 0 3.367188-1.191406 3.851563-2.921874l30.882812-110.136719 16.695313 29.601562c.710937 1.253907 2.039062 2.035157 3.484375 2.035157h62.769531c.414063 0 .789063-.121094 1.171875-.234376zm0 0" fill="#3a2c60"/><path d="m325.820312 153.554688-15.363281-15.363282c-3.113281-3.109375-8.15625-3.109375-11.269531 0l-24.992188 24.992188-24.992187-24.992188c-3.109375-3.109375-8.15625-3.109375-11.265625 0l-15.367188 15.363282c-3.109374 3.113281-3.109374 8.15625 0 11.269531l24.992188 24.992187-24.992188 24.992188c-3.109374 3.113281-3.109374 8.15625 0 11.269531l15.367188 15.363281c3.109375 3.109375 8.15625 3.109375 11.265625 0l24.992187-24.992187 24.992188 24.992187c3.113281 3.109375 8.15625 3.109375 11.269531 0l15.363281-15.363281c3.113282-3.113281 3.113282-8.15625 0-11.269531l-24.992187-24.992188 24.992187-24.992187c3.113282-3.117188 3.113282-8.160157 0-11.269531zm0 0" fill="#fff"/><path d="m300.828125 189.816406 24.992187-24.992187c3.113282-3.113281 3.113282-8.15625 0-11.269531l-14.617187-14.613282-24.242187 24.242188-6.386719-6.382813-6.382813 6.382813-24.242187-24.242188-14.617188 14.613282c-3.113281 3.113281-3.113281 8.15625 0 11.269531l24.992188 24.992187-24.992188 24.992188c-3.113281 3.113281-3.113281 8.15625 0 11.269531l14.617188 14.613281 24.242187-24.242187 6.382813 6.382812 6.386719-6.382812 24.242187 24.242187 14.617187-14.613281c3.113282-3.113281 3.113282-8.15625 0-11.269531zm0 0" fill="#fa759e"/><path d="m304.824219 247.773438c-3.199219 0-6.203125-1.25-8.460938-3.503907l-22.164062-22.167969-22.167969 22.167969c-4.507812 4.515625-12.394531 4.523438-16.917969 0l-15.367187-15.367187c-2.257813-2.261719-3.507813-5.265625-3.507813-8.464844 0-3.195312 1.25-6.199219 3.507813-8.464844l22.164062-22.164062-22.164062-22.167969c-2.257813-2.261719-3.507813-5.265625-3.507813-8.460937 0-3.195313 1.25-6.199219 3.507813-8.464844l15.367187-15.363282c4.527344-4.523437 12.414063-4.515624 16.917969 0l22.167969 22.164063 22.164062-22.164063c4.515625-4.519531 12.410157-4.519531 16.921875 0l15.367188 15.363282c4.664062 4.667968 4.664062 12.257812 0 16.921875l-22.167969 22.167969 22.167969 22.164062c4.664062 4.667969 4.664062 12.253906 0 16.921875l-15.367188 15.367187c-2.261718 2.269532-5.265625 3.515626-8.460937 3.515626zm-30.628907-35.328126c1.066407 0 2.082032.417969 2.828126 1.171876l24.992187 24.996093c1.5 1.5 4.109375 1.5 5.609375 0l15.367188-15.363281c1.546874-1.550781 1.546874-4.066406 0-5.613281l-24.996094-24.992188c-.753906-.753906-1.171875-1.769531-1.171875-2.828125s.417969-2.078125 1.171875-2.828125l24.996094-24.996093c1.542968-1.542969 1.542968-4.0625 0-5.609376l-15.367188-15.363281c-1.5-1.5-4.109375-1.5-5.609375 0l-24.992187 24.992188c-1.5625 1.566406-4.089844 1.566406-5.65625 0l-24.996094-24.992188c-1.5-1.5-4.105469-1.5-5.605469 0l-15.367187 15.363281c-.75.753907-1.164063 1.75-1.164063 2.804688 0 1.058594.417969 2.058594 1.164063 2.804688l24.992187 24.996093c1.566406 1.5625 1.566406 4.09375 0 5.65625l-24.992187 24.992188c-.75.75-1.164063 1.746093-1.164063 2.804687s.417969 2.054688 1.164063 2.804688l15.367187 15.367187c1.5 1.496094 4.105469 1.5 5.605469 0l24.996094-24.996093c.753906-.75 1.769531-1.171876 2.828124-1.171876zm0 0" fill="#3a2c60"/><path d="m362.496094 158.46875c-3.554688-26.988281-28.046875-40.976562-29.085938-41.558594-1.925781-1.082031-4.367187-.394531-5.441406 1.535156-1.078125 1.925782-.394531 4.363282 1.539062 5.441407.21875.125 22.023438 12.574219 25.0625 35.625 2.332032 17.6875-6.8125 37.082031-27.121093 57.679687 1.3125 2.929688.78125 6.480469-1.621094 8.882813l-.054687.054687c.585937.316406 1.214843.53125 1.871093.53125 1.007813 0 2.011719-.375 2.789063-1.136718 24.050781-23.421876 34.839844-45.988282 32.0625-67.054688zm0 0" fill="#3a2c60"/></svg>