<svg height="512" viewBox="0 0 128 128" width="512" xmlns="http://www.w3.org/2000/svg"><g><path d="m72.375 87.627h26.127v11.542h-26.127z" fill="#6aa8fb"/><path d="m98.5 102.627h-55.833a15.016 15.016 0 0 1 -15-15v-44.058a15.016 15.016 0 0 1 15-15h27.664v6h-27.664a9.01 9.01 0 0 0 -9 9v44.058a9.01 9.01 0 0 0 9 9h55.833z" fill="#eaeaf0"/><path d="m41.192 117v-34.75h11.812l10.188 34.75z" fill="#6aa8fb"/><g fill="#5283c3"><path d="m97.808 115.5h-67.616a6 6 0 0 0 -6 6h79.616a6 6 0 0 0 -6-6z"/><circle cx="48.766" cy="99.168" r="3"/><path d="m76.051 39.506h9v28.667h-9z" transform="matrix(.97 -.242 .242 .97 -10.642 21.115)"/></g><path d="m66.537 7.891h17.692v50.5h-17.692z" fill="#6aa8fb" transform="matrix(.97 -.242 .242 .97 -5.783 19.247)"/><path d="m82.229 50.569a1.751 1.751 0 0 1 -1.7-1.327l-2.805-11.249a1.75 1.75 0 0 1 3.4-.847l2.805 11.254a1.751 1.751 0 0 1 -1.275 2.121 1.73 1.73 0 0 1 -.425.048z" fill="#5283c3"/><circle cx="66.085" cy="31.569" fill="#5283c3" r="6"/></g></svg>