<svg xmlns="http://www.w3.org/2000/svg" xmlns:xlink="http://www.w3.org/1999/xlink" viewBox="0 0 2835.84 1965"><defs><style>.cls-1{isolation:isolate;}.cls-2{fill:url(#linear-gradient);}.cls-3{fill:url(#linear-gradient-2);}.cls-4{fill:#f3f3f3;}.cls-5{fill:#fff;}.cls-6{fill:url(#linear-gradient-3);}.cls-7{fill:url(#linear-gradient-4);}.cls-8{fill:url(#linear-gradient-5);}.cls-9{fill:url(#linear-gradient-6);}.cls-10{fill:#e0e0e0;}.cls-11{fill:url(#linear-gradient-7);}.cls-12{fill:url(#linear-gradient-8);}.cls-13{fill:url(#linear-gradient-9);}.cls-14{fill:url(#linear-gradient-10);}.cls-15{fill:url(#linear-gradient-11);}.cls-16{fill:url(#linear-gradient-12);}.cls-17,.cls-24{fill:#f5f5f5;}.cls-18{fill:url(#linear-gradient-13);}.cls-19{fill:url(#linear-gradient-14);}.cls-20{fill:url(#linear-gradient-15);}.cls-21{fill:url(#linear-gradient-16);}.cls-22{fill:#4e7ed6;}.cls-23{fill:url(#radial-gradient);}.cls-24{mix-blend-mode:hard-light;}.cls-25{fill:#537ffd;}.cls-26{fill:#4ba6f3;}.cls-27{fill:#46bbed;}.cls-28{fill:url(#linear-gradient-17);}.cls-29{fill:url(#linear-gradient-18);}.cls-30{fill:url(#linear-gradient-19);}.cls-31{fill:url(#linear-gradient-20);}.cls-32{fill:url(#linear-gradient-21);}.cls-33{fill:url(#linear-gradient-22);}.cls-34{fill:#2d5bad;}.cls-35{fill:#5d96ff;}.cls-36{fill:#e2d2ca;}.cls-37{fill:#706865;}.cls-38{fill:#ccbdb7;}.cls-39{fill:#998e89;}.cls-40{fill:#b59074;}.cls-41{fill:#424773;}.cls-42{fill:#292c47;}.cls-43{fill:#eea886;}.cls-44{fill:#3a3f47;}.cls-45{fill:#323657;}.cls-46{fill:#918783;}.cls-47{fill:#5e5854;}.cls-48{fill:#bfb2ac;}.cls-49{fill:#b8aba5;}.cls-50{fill:#f5f7ff;}.cls-51{fill:#918681;}.cls-52{fill:#dbdff0;}.cls-53{fill:#dfe1e8;}.cls-54{fill:#8e4f3a;}.cls-55{fill:#5e3527;}.cls-56{fill:#7a4432;}.cls-57{fill:#353a3d;}.cls-58{fill:#81807e;}.cls-59{fill:#2d3133;}.cls-60{fill:#bcc0cf;}.cls-61{fill:#633029;}.cls-62{fill:#434343;}.cls-63{fill:#616161;}.cls-64{fill:#e0cec7;}.cls-65{fill:#a7aab8;}.cls-66{fill:#c6cad9;}.cls-67{fill:#163342;}.cls-68{fill:#2f4563;}.cls-69{fill:#aaadba;}.cls-70{fill:#eea987;}.cls-71{fill:#a77860;}</style><linearGradient id="linear-gradient" x1="1840.4" y1="316.75" x2="2339.11" y2="316.75" gradientUnits="userSpaceOnUse"><stop offset="0" stop-color="#ff9f55"/><stop offset="1" stop-color="#ffd255"/></linearGradient><linearGradient id="linear-gradient-2" x1="2291.69" y1="104.91" x2="2478.46" y2="104.91" xlink:href="#linear-gradient"/><linearGradient id="linear-gradient-3" x1="2857.76" y1="-9406.57" x2="3246.98" y2="-9406.57" gradientTransform="translate(-7996.18 488.69) rotate(73.11)" gradientUnits="userSpaceOnUse"><stop offset="0" stop-color="#40d5e6"/><stop offset="1" stop-color="#57f"/></linearGradient><linearGradient id="linear-gradient-4" x1="2058.99" y1="763.78" x2="2298.88" y2="365.55" gradientUnits="userSpaceOnUse"><stop offset="0" stop-color="#602f80"/><stop offset="1" stop-color="#5770ff"/></linearGradient><linearGradient id="linear-gradient-5" x1="5823.61" y1="-2831.07" x2="5782.15" y2="-2940.81" gradientTransform="translate(-7996.18 488.69) rotate(73.11)" xlink:href="#linear-gradient-4"/><linearGradient id="linear-gradient-6" x1="-7191.79" y1="1589.61" x2="-7191.79" y2="1139.56" gradientTransform="matrix(-1, 0, 0, 1, -6698.85, -15.04)" xlink:href="#linear-gradient-4"/><linearGradient id="linear-gradient-7" x1="710.38" y1="1117.9" x2="3053.28" y2="1117.9" xlink:href="#linear-gradient"/><linearGradient id="linear-gradient-8" x1="157.14" y1="1297.41" x2="157.14" y2="1015.66" xlink:href="#linear-gradient"/><linearGradient id="linear-gradient-9" x1="229.31" y1="1297.41" x2="229.31" y2="1015.66" xlink:href="#linear-gradient"/><linearGradient id="linear-gradient-10" x1="301.48" y1="1297.41" x2="301.48" y2="1015.66" xlink:href="#linear-gradient"/><linearGradient id="linear-gradient-11" x1="373.64" y1="1297.41" x2="373.64" y2="1015.66" xlink:href="#linear-gradient"/><linearGradient id="linear-gradient-12" x1="1570.44" y1="2247.15" x2="1606.18" y2="216.88" gradientTransform="translate(3182.15 2149.61) rotate(-180)" xlink:href="#linear-gradient-3"/><linearGradient id="linear-gradient-13" x1="1478.53" y1="521.68" x2="1754.78" y2="521.68" gradientTransform="matrix(1, 0, 0, 1, 0, 0)" xlink:href="#linear-gradient-3"/><linearGradient id="linear-gradient-14" x1="1478.53" y1="662.63" x2="1732.11" y2="662.63" gradientTransform="matrix(1, 0, 0, 1, 0, 0)" xlink:href="#linear-gradient-3"/><linearGradient id="linear-gradient-15" x1="1478.53" y1="592.15" x2="1697.93" y2="592.15" gradientTransform="matrix(1, 0, 0, 1, 0, 0)" xlink:href="#linear-gradient-3"/><linearGradient id="linear-gradient-16" x1="1399.58" y1="811.43" x2="1399.58" y2="519.5" gradientUnits="userSpaceOnUse"><stop offset="0" stop-color="#7db3e0"/><stop offset="1" stop-color="#fff"/></linearGradient><radialGradient id="radial-gradient" cx="1554.26" cy="986.57" r="659.07" gradientTransform="translate(-99.32 -29.26) scale(1.27 1.23)" gradientUnits="userSpaceOnUse"><stop offset="0.16" stop-color="#90c2e8"/><stop offset="0.58" stop-color="#47afff"/><stop offset="1" stop-color="#6783f5"/></radialGradient><linearGradient id="linear-gradient-17" x1="300.8" y1="1561.49" x2="290.07" y2="1130.33" xlink:href="#linear-gradient"/><linearGradient id="linear-gradient-18" x1="246.46" y1="1562.6" x2="235.73" y2="1131.9" xlink:href="#linear-gradient"/><linearGradient id="linear-gradient-19" x1="1689.42" y1="-35.66" x2="1590.75" y2="333.45" gradientTransform="translate(3284.4 281.98) rotate(-180)" xlink:href="#linear-gradient"/><linearGradient id="linear-gradient-20" x1="1684.97" y1="-38.29" x2="1585.19" y2="334.94" gradientTransform="translate(3284.4 243.39) rotate(-180)" xlink:href="#linear-gradient"/><linearGradient id="linear-gradient-21" x1="1172.44" y1="362.7" x2="1195.67" y2="718.26" gradientTransform="matrix(1, 0, 0, 1, 0, 0)" xlink:href="#linear-gradient-3"/><linearGradient id="linear-gradient-22" x1="1389.81" y1="376.58" x2="1413.22" y2="734.92" gradientTransform="translate(873.43 1925.72) rotate(-90)" xlink:href="#linear-gradient-3"/></defs><title>19836</title><g class="cls-1"><g id="Слой_1" data-name="Слой 1"><path class="cls-2" d="M1894.37,395.21a201,201,0,0,0,30,48.62l-17.81,35.93,36,25.95,36,25.95,30.87-26.5a216.77,216.77,0,0,0,56.88,14.05l13.8,37.5,44.49-6.12,44.49-6.11,2.35-39.71A212,212,0,0,0,2221.81,476l37.34,17.14,27-34.6,27-34.59-27.54-29.71a195.9,195.9,0,0,0,14.6-54.74l39-13.28-6.36-42.81-6.35-42.81-41.27-2.26a201,201,0,0,0-29.94-48.62L2273,153.74l-35.95-25.95-36-26-30.87,26.51a216.77,216.77,0,0,0-56.88-14l-13.8-37.5-44.49,6.11L2010.57,89l-2.35,39.71a212.35,212.35,0,0,0-50.52,28.81l-37.34-17.13-27,34.59-27,34.6L1894,239.3a196.08,196.08,0,0,0-14.6,54.74l-39,13.29,6.35,42.81,6.36,42.81Zm173.12-228.48c86.1-11.83,165.86,45.74,178.16,128.6S2198.11,454.94,2112,466.77,1946.16,421,1933.86,338.17,1981.4,178.56,2067.49,166.73Z" transform="translate(-217.44 -15.04)"/><path class="cls-3" d="M2311.9,134.29a75.18,75.18,0,0,0,11.22,18.21L2316.45,166l13.46,9.72,13.47,9.72,11.56-9.93a81,81,0,0,0,21.3,5.26l5.17,14,16.66-2.28,16.66-2.29.88-14.88a79.17,79.17,0,0,0,18.92-10.79l14,6.42,10.09-13,10.1-13-10.31-11.13a73.68,73.68,0,0,0,5.47-20.5l14.59-5-2.38-16-2.38-16-15.45-.85A75.31,75.31,0,0,0,2447,57.32l6.67-13.46-13.46-9.72-13.47-9.72-11.55,9.93a81.55,81.55,0,0,0-21.31-5.27l-5.17-14-16.66,2.29-16.66,2.29-.88,14.87a79.71,79.71,0,0,0-18.92,10.79l-14-6.41-10.1,13-10.1,13,10.31,11.12a73.84,73.84,0,0,0-5.47,20.51l-14.59,5,2.38,16,2.38,16Zm64.84-85.57c32.24-4.43,62.11,17.14,66.72,48.17s-17.8,59.77-50.05,64.2-62.11-17.13-66.72-48.16S2344.5,53.15,2376.74,48.72Z" transform="translate(-217.44 -15.04)"/><rect class="cls-4" x="1333.92" y="752.7" width="8.51" height="858.84"/><rect class="cls-5" x="1338.18" y="646.87" width="91.7" height="22.39"/><rect class="cls-5" x="1338.18" y="688.25" width="73.37" height="22.39"/><rect class="cls-5" x="1342.43" y="1662.41" width="96.23" height="29.85"/><path class="cls-6" d="M1908.85,468.3S2095,680.67,1976.91,818.19s-150.55,2.68-150.55,2.68-70.66,12.62,51.73-159.38C1935.78,580.41,1908.85,468.3,1908.85,468.3Z" transform="translate(-217.44 -15.04)"/><path class="cls-7" d="M2316.81,302.59S2455.08,499,2214.34,725.21s-222.84,361.16-222.84,361.16S1745.37,622.72,2316.81,302.59Z" transform="translate(-217.44 -15.04)"/><path class="cls-8" d="M1946.57,1001c-101,8.77,16.18-254,174-322.64s291.28-62.78,383.54-135.17C2504.08,543.23,2443.91,957.85,1946.57,1001Z" transform="translate(-217.44 -15.04)"/><rect class="cls-9" x="488.69" y="752.7" width="8.51" height="858.84"/><rect class="cls-4" x="1093.52" y="752.7" width="8.51" height="858.84"/><rect class="cls-4" x="1698.34" y="752.7" width="8.51" height="858.84"/><rect class="cls-10" x="492.95" y="646.87" width="144.87" height="22.39"/><rect class="cls-10" x="492.95" y="688.25" width="205.49" height="22.39"/><rect class="cls-5" x="1091.25" y="646.87" width="170.08" height="22.39"/><rect class="cls-5" x="1091.25" y="688.25" width="108.75" height="22.39"/><rect class="cls-5" x="1706.85" y="646.87" width="105.4" height="22.39"/><rect class="cls-5" x="1706.85" y="688.25" width="122.84" height="22.39"/><rect class="cls-5" x="1097.77" y="1662.41" width="96.23" height="29.85"/><rect class="cls-5" x="1706.85" y="1662.41" width="96.23" height="29.85"/><path class="cls-11" d="M3053.28,982.13v51.29c-44.77-34.32-88.82-60.29-132.45-78.83-283.1-120.45-547.32,70.58-861.4,301.69a723.17,723.17,0,0,1-67.06,44.1c-75.4,43.54-142.85,61.3-204.64,61.3-59.2,0-113.17-16.28-164-41.79-68.74-34.51-131.68-85.85-193.85-136.55-82-66.88-167-135.29-265.18-169-299.65-103-452.95,85-454.34,86.67v-57.15c1.63-2,29-36.12,108.1-68.78,72-29.71,192.84-53.37,359.51,2.4,105.61,35.33,193.33,106.93,278.13,176.12,91.6,74.73,176.5,144,274.81,163.85h0c44.1,8.91,90.93,7.85,142.27-7.19,49.18-14.35,102.54-41.47,161.59-85,195.43-143.79,379.65-280.89,560.94-330.94,116.63-32.24,236.52-27.72,354.15,26.53A599.7,599.7,0,0,1,3053.28,982.13Z" transform="translate(-217.44 -15.04)"/><rect class="cls-10" x="142.61" y="1072.19" width="29.06" height="120.77"/><rect class="cls-10" x="214.78" y="1023.13" width="29.06" height="169.83"/><rect class="cls-10" x="286.94" y="997.53" width="29.06" height="195.43"/><rect class="cls-10" x="359.11" y="986.86" width="29.06" height="206.1"/><rect class="cls-12" x="142.61" y="1117.19" width="29.06" height="75.77"/><rect class="cls-13" x="214.78" y="1086.41" width="29.06" height="106.55"/><rect class="cls-14" x="286.94" y="1070.35" width="29.06" height="122.61"/><rect class="cls-15" x="359.11" y="1063.66" width="29.06" height="129.3"/><rect class="cls-16" x="1059.75" y="398.32" width="1062.65" height="1352.97" rx="59.95" transform="translate(2964.71 2134.57) rotate(180)"/><path class="cls-17" d="M945.44,234.4h896.64a0,0,0,0,1,0,0V1679.08a0,0,0,0,1,0,0H905.19a0,0,0,0,1,0,0V274.65a40.25,40.25,0,0,1,40.25-40.25Z"/><rect class="cls-18" x="1478.53" y="504.87" width="276.25" height="33.62"/><rect class="cls-19" x="1478.53" y="645.82" width="253.58" height="33.62"/><rect class="cls-20" x="1478.53" y="575.34" width="219.4" height="33.62"/><path class="cls-21" d="M1399.58,735.54a222.93,222.93,0,0,1-89.93-18.66C1232.1,683,1182,608.09,1182,526.14c0-115.46,97.61-209.39,217.59-209.39s217.59,93.93,217.59,209.39c0,82-50.11,156.82-127.66,190.74A223,223,0,0,1,1399.58,735.54Zm0-407.74c-113.65,0-206.11,89-206.11,198.34,0,77.63,47.47,148.54,120.93,180.67a214.12,214.12,0,0,0,170.35,0c73.47-32.13,120.93-103,120.93-180.67C1605.68,416.78,1513.22,327.8,1399.58,327.8Z" transform="translate(-217.44 -15.04)"/><rect class="cls-10" x="964.54" y="804.79" width="317.42" height="29.98"/><rect class="cls-10" x="964.54" y="885.45" width="317.42" height="29.98"/><rect class="cls-10" x="964.54" y="966.11" width="317.42" height="29.98"/><rect class="cls-22" x="1346.74" y="804.79" width="52.98" height="29.98"/><rect class="cls-22" x="1346.74" y="885.45" width="52.98" height="29.98"/><rect class="cls-22" x="1346.74" y="966.11" width="52.98" height="29.98"/><path class="cls-23" d="M3053.28,1318v41.56c-45.54,9-87.77,11.86-133.17,11.86-179,0-335.83-70.72-497.47-147.8q-13-6.24-26.13-12.51c-211.05-101-429.3-205.46-720.08-176.86-185.7,18.27-302.24,91.06-405.06,155.23-93.14,58.17-181.15,109.28-300.36,113.62-192.65,7.06-259.52-72-260.63-76.86V1175.5c.24.88,41.85,88.62,256.75,88.62h3.69c107.42-.56,186.66-50,278.45-107.35,106.71-66.61,227.6-142.08,423-161.31,302.42-29.76,526,77.22,742.23,180.73,21.62,10.34,43.14,20.63,64.66,30.68C2661.22,1292.12,2840.64,1361.5,3053.28,1318Z" transform="translate(-217.44 -15.04)"/><rect class="cls-24" x="1475.34" y="774.59" width="634.17" height="926.72" rx="74.73"/><path class="cls-10" d="M2252.82,927.47c-15.54-41.82-57.07-67.51-100.85-66.24a107.16,107.16,0,0,0-31.85,5.81c-31.89,11-54.75,35.42-64.14,64.29a95.94,95.94,0,0,0,1.35,63.42q1.18,3.16,2.56,6.23a98.54,98.54,0,0,0,16.09,24.86c27.16,30.73,72.24,43.72,114.05,29.33C2244,1036.59,2272.13,979.42,2252.82,927.47Zm-71.54,104.16c-31.35,10.79-65.14,1-85.51-22A74.19,74.19,0,0,1,2083.71,991q-1-2.29-1.92-4.67a72,72,0,0,1-1-47.55c7-21.65,24.18-40,48.09-48.2a80.61,80.61,0,0,1,23.88-4.36c32.81-1,64,18.31,75.61,49.66C2242.83,974.83,2221.76,1017.7,2181.28,1031.63Z" transform="translate(-217.44 -15.04)"/><path class="cls-25" d="M2080.78,938.78l-24.8-7.45c9.39-28.87,32.25-53.31,64.14-64.29a107.16,107.16,0,0,1,31.85-5.81l.78,25a80.61,80.61,0,0,0-23.88,4.36C2105,898.81,2087.82,917.13,2080.78,938.78Z" transform="translate(-217.44 -15.04)"/><path class="cls-26" d="M2083.71,991l-23.82,10q-1.38-3.06-2.56-6.23a95.94,95.94,0,0,1-1.35-63.42l24.8,7.45a72,72,0,0,0,1,47.55Q2082.68,988.7,2083.71,991Z" transform="translate(-217.44 -15.04)"/><path class="cls-27" d="M2076,1025.84a98.54,98.54,0,0,1-16.09-24.86l23.82-10a74.19,74.19,0,0,0,12.06,18.64Z" transform="translate(-217.44 -15.04)"/><rect class="cls-27" x="1880.76" y="1492.1" width="55.96" height="176.56"/><rect class="cls-27" x="1797.57" y="1541.62" width="55.96" height="127.04"/><rect class="cls-27" x="1961.46" y="1410.27" width="55.96" height="258.4"/><polygon class="cls-27" points="1560.06 1473.9 1555.2 1470.31 1646.38 1356.13 1758.92 1362.01 1843.79 1231.96 1935.21 1222.88 1990.15 1118.32 1995.62 1120.98 1939.17 1228.42 1847.39 1237.53 1762.19 1368.09 1649.28 1362.19 1560.06 1473.9"/><path class="cls-22" d="M1950,921.2H1790.84c-10,0-18.19-7.84-18.19-17.51h0c0-9.67,8.14-17.5,18.19-17.5H1950c10,0,18.2,7.83,18.2,17.5h0C1968.16,913.36,1960,921.2,1950,921.2Z" transform="translate(-217.44 -15.04)"/><path class="cls-10" d="M1950,982.27H1790.84c-10,0-18.19-7.84-18.19-17.5h0c0-9.67,8.14-17.51,18.19-17.51H1950c10,0,18.2,7.84,18.2,17.51h0C1968.16,974.43,1960,982.27,1950,982.27Z" transform="translate(-217.44 -15.04)"/><path class="cls-10" d="M1950,1043.35H1790.84c-10,0-18.19-7.84-18.19-17.51h0c0-9.67,8.14-17.5,18.19-17.5H1950c10,0,18.2,7.83,18.2,17.5h0C1968.16,1035.51,1960,1043.35,1950,1043.35Z" transform="translate(-217.44 -15.04)"/><polygon class="cls-28" points="273.95 1395.49 338.02 1395.49 318.41 1356.36 254.35 1356.36 273.95 1395.49"/><polygon class="cls-29" points="243.98 1395.49 259.25 1395.49 239.64 1356.36 224.37 1356.36 243.98 1395.49"/><rect class="cls-30" x="1578.79" y="129.93" width="126.83" height="22.11" transform="translate(3066.95 266.93) rotate(180)"/><rect class="cls-31" x="1578.79" y="119.61" width="126.83" height="4.16" transform="translate(3066.95 228.35) rotate(180)"/><rect class="cls-32" x="1153.78" y="396.37" width="56.7" height="229.47"/><rect class="cls-33" x="1372.29" y="406.92" width="54.57" height="238.45" transform="translate(1708.28 -888.47) rotate(90)"/><path class="cls-10" d="M569.53,629.24c-54.38-24.76-117.25-11.6-156.38,28.39a129.84,129.84,0,0,0-23.79,33.61,125.69,125.69,0,0,0,2.45,116.14,132.54,132.54,0,0,0,62,57.25c2.74,1.25,5.53,2.41,8.31,3.47a139.07,139.07,0,0,0,38.65,8.64C555.23,881,609.21,853,634,802.62,665.92,737.62,637.07,660,569.53,629.24Zm33.83,159.44c-18.56,37.75-59,58.75-99.87,55.58a104.13,104.13,0,0,1-29-6.49q-3.15-1.18-6.25-2.6a99.39,99.39,0,0,1-46.46-42.92A94.15,94.15,0,0,1,420,705.18,97.52,97.52,0,0,1,437.8,680c29.33-30,76.47-39.85,117.24-21.29C605.69,681.75,627.31,740,603.36,788.68Z" transform="translate(-217.44 -15.04)"/><path class="cls-34" d="M421.81,792.25l-30,15.13a125.69,125.69,0,0,1-2.45-116.14,129.84,129.84,0,0,1,23.79-33.61L437.8,680A97.52,97.52,0,0,0,420,705.18,94.15,94.15,0,0,0,421.81,792.25Z" transform="translate(-217.44 -15.04)"/><path class="cls-35" d="M474.52,837.77,462.11,868.1c-2.78-1.06-5.57-2.22-8.31-3.47a132.54,132.54,0,0,1-62-57.25l30-15.13a99.39,99.39,0,0,0,46.46,42.92Q471.38,836.58,474.52,837.77Z" transform="translate(-217.44 -15.04)"/><path class="cls-35" d="M500.76,876.74a139.07,139.07,0,0,1-38.65-8.64l12.41-30.33a104.13,104.13,0,0,0,29,6.49Z" transform="translate(-217.44 -15.04)"/><polygon class="cls-35" points="252.65 947.52 0 947.52 0 942.69 247.63 942.69 247.63 839.69 252.65 839.69 252.65 947.52"/><rect class="cls-10" y="892.39" width="132.99" height="28.99"/><rect class="cls-36" x="741.32" y="1368.06" width="206.5" height="11.8"/><rect class="cls-37" x="986.44" y="1425.59" width="18.09" height="536.48" transform="translate(1773.53 3372.63) rotate(180)"/><rect class="cls-38" x="915.5" y="1364.71" width="143.54" height="16.85"/><rect class="cls-39" x="960.09" y="1220.98" width="54.36" height="158.88"/><rect class="cls-40" x="667.24" y="1380.05" width="795.29" height="30.5"/><path class="cls-24" d="M732.05,1210.46s-8.7,117.39,15.14,131.44c14.93,8.8,74.46,38.48,72.69,44s-33.61,49.53-33.61,49.53-114.35-72.47-118-95.3c-3.61-22.31,5.62-171.88,21.34-178.77,11.77-5.16,18-.89,32.82,9.71C743.22,1186,732.05,1210.46,732.05,1210.46Z" transform="translate(-217.44 -15.04)"/><path class="cls-41" d="M872.74,1888.82s-3.56,23.76-4,27.32-39.56-2.1-39.56-2.1L826,1885.77S867.85,1885.47,872.74,1888.82Z" transform="translate(-217.44 -15.04)"/><path class="cls-42" d="M869.16,1913.12s12.39,14.32,24.37,20.55,30.82,8.71,37.91,15.17c5.12,4.66,18.63,24.73-31.14,24.32s-73.78,2.84-79.12-4.86,7.72-56.79,7.72-56.79S840.69,1915.6,869.16,1913.12Z" transform="translate(-217.44 -15.04)"/><path class="cls-41" d="M1123.32,1889.05s-3.55,23.75-4,27.32-39.55-2.1-39.55-2.1L1076.6,1886S1118.43,1885.7,1123.32,1889.05Z" transform="translate(-217.44 -15.04)"/><path class="cls-42" d="M1119.74,1913.35s12.39,14.31,24.38,20.55,56.09,11.36,63.17,17.82c5.12,4.66,13.63,23.42-56.41,21.67-49.76-1.25-73.78,2.83-79.11-4.86s7.71-56.79,7.71-56.79S1090.59,1916.1,1119.74,1913.35Z" transform="translate(-217.44 -15.04)"/><path class="cls-42" d="M746.59,1478.54s142.19,23.16,174.31,28,206.25,46.55,228,59.26c17.34,10.11-9.09,253-15.26,345.7h-68.59l-5-278c-82.3,2-141-18.53-201-9.77s-109.91,21.21-148-28C711.14,1595.79,709.73,1489.28,746.59,1478.54Z" transform="translate(-217.44 -15.04)"/><path class="cls-42" d="M886.74,1911.74l-66.84-4-6.51-274.25c-35.43.85-47.58-1.31-76.25-4.66l-54-120.71c47.29,9.1,198.83,45.88,219,57.67C919.54,1575.93,892.92,1819.06,886.74,1911.74Z" transform="translate(-217.44 -15.04)"/><path class="cls-43" d="M812.05,965.62s52.12-13.86,72,25.08,10.87,112.76-15.4,119.71-64-1.05-75-25.29-19.6-58.68-17-81S798.21,971,812.05,965.62Z" transform="translate(-217.44 -15.04)"/><path class="cls-43" d="M855,1102.64s-.57,29.61,2.82,35.93-72.58,4.73-72.58,4.73,12-35.57,5.18-65.87C783.73,1047.45,855,1102.64,855,1102.64Z" transform="translate(-217.44 -15.04)"/><path class="cls-44" d="M786.36,1066.22s4.06,8,23.73,6.67,45.61-24.12,53.95-26.16,8.85-6.61,8.85-6.61l4.42,7.56,8.55,1.25s-5.81-22.88,6.85-30.94-5.7-73-69.83-57.3c0,0-48.94,8.63-49.59,34.92S776.86,1052.29,786.36,1066.22Z" transform="translate(-217.44 -15.04)"/><path class="cls-36" d="M861.85,1137.81s-.21-12.07-5.89-13.22-59.72-8.31-66.7-5.67l-3,15.92S799.71,1142.8,861.85,1137.81Z" transform="translate(-217.44 -15.04)"/><path class="cls-43" d="M877.49,1034.73c-1.46-9.89-13.14-21.25-19.83-5.85s4.52,37.83,12,36.63S879.47,1048.14,877.49,1034.73Z" transform="translate(-217.44 -15.04)"/><path class="cls-45" d="M1088.2,1280.33h-.09C1088.5,1280.49,1088.56,1280.5,1088.2,1280.33Z" transform="translate(-217.44 -15.04)"/><path class="cls-44" d="M796.84,972.68s-63.55-2.87-11.09,92.6Z" transform="translate(-217.44 -15.04)"/><polygon class="cls-46" points="437.79 1929.23 442.52 1942.03 642.28 1882.46 632.71 1856.55 437.79 1929.23"/><rect class="cls-46" x="626.43" y="1664.34" width="22.7" height="209"/><rect class="cls-47" x="570.82" y="1653.24" width="133.92" height="12.32"/><polygon class="cls-46" points="839.53 1929.23 834.8 1942.03 635.04 1882.46 643.82 1854.92 839.53 1929.23"/><polygon class="cls-46" points="698.78 1940.66 698.78 1955.55 635.04 1882.46 643.82 1854.92 698.78 1940.66"/><ellipse class="cls-48" cx="839.53" cy="1947.03" rx="18.67" ry="17.97"/><ellipse class="cls-48" cx="681.7" cy="1947.03" rx="18.67" ry="17.97"/><ellipse class="cls-48" cx="437.79" cy="1947.03" rx="18.67" ry="17.97"/><path class="cls-36" d="M497.17,1606.59h283a17.14,17.14,0,0,1,17.14,17.14v12.38a17.13,17.13,0,0,1-17.13,17.13h-283A17.13,17.13,0,0,1,480,1636.1v-12.38A17.14,17.14,0,0,1,497.17,1606.59Z"/><rect class="cls-37" x="1342.69" y="1410.55" width="18.09" height="536.48"/><rect class="cls-49" x="752.6" y="978.88" width="469.36" height="318.63" rx="17.09"/><rect class="cls-50" x="770.98" y="996.1" width="432.59" height="251.48"/><path class="cls-51" d="M1401.79,1286.34c0,7.15-7.81,13-17.44,13s-17.43-5.8-17.43-13,7.8-12.95,17.43-12.95S1401.79,1279.19,1401.79,1286.34Z" transform="translate(-217.44 -15.04)"/><path class="cls-39" d="M1301.88,1395.5v-5.67s-8.28-35.27-66.87-35.27-57.41,40.94-57.41,40.94Z" transform="translate(-217.44 -15.04)"/><path class="cls-43" d="M1176.89,1359.8s12.73-1,17.39-3.66,32.56-20.77,39.12-17.87,50.17,15.74,48.65,21.88-5.55,5.55-8.62,4.46-34.75-7.48-37.55-6.4c0,0,31.11,10.92,31.24,18.88s-6.51,9.91-9.46,12.93-6.49,10.49-14.51,11.07S1196,1388.56,1188,1388s-23,.48-24-.79S1176.89,1359.8,1176.89,1359.8Z" transform="translate(-217.44 -15.04)"/><path class="cls-52" d="M945.16,1154.52c-40.59-6.86-83.31-16.72-83.31-16.72l-75.58-3s-69.37,14.7-96.69,26.57c-2.59,1.13-2.6,59.56-9.72,74.88l22.65,46s13.09,91.09,15.8,131.61c1.25,18.59-3.52,179.73-3.52,179.73s6.79,3.23,58.38,8.7,180.47-2,181.28-7.84-25-218.33-26.1-229.33c-1.75-16.89,5.07-94.92,5.07-94.92,9.72,12.57,34.5,69.3,60.32,96.3,15.2,15.88,90.42,25.62,104.6,26.07,30.87,1,87.18,6.9,88.82,4,1.32-1.74,4.91-48.1,1.38-49.23-3.09-1-107.65-6.79-134.44-20.46-9.8-5-39.09-66.49-39.09-66.49S967.54,1164.21,945.16,1154.52Z" transform="translate(-217.44 -15.04)"/><rect class="cls-36" x="405.92" y="1282.31" width="218.79" height="291.61" rx="32.9"/><path class="cls-36" d="M803.38,1656.67c-32.25,0-58.41-10.43-77.77-31-43.73-46.47-35.87-128.15-35.52-131.61a12.08,12.08,0,0,1,13.32-10.5,11.85,11.85,0,0,1,10.91,12.81c-.1.93-7.06,75,29.38,113.62,14.75,15.64,34.27,23.24,59.68,23.24a11.72,11.72,0,1,1,0,23.43Z" transform="translate(-217.44 -15.04)"/><rect class="cls-53" x="801.65" y="1016.13" width="126.72" height="13.29" rx="2.45"/><rect class="cls-53" x="801.65" y="1044.63" width="126.72" height="13.29" rx="2.45"/><rect class="cls-53" x="801.65" y="1077.31" width="126.72" height="150.24" rx="8.24"/><rect class="cls-53" x="953.95" y="1016.13" width="225.66" height="211.42" rx="13.04"/><path class="cls-54" d="M1951.38,1157.31s8.42-17.52,9.79-20.16,9.41-6.82,19-9.14c9.29-2.25,21.92-6.76,23.36-5.89s3.13,1,4.85,4.84a15.43,15.43,0,0,1,1,8s4.44,3.8,3.11,8.87a8.24,8.24,0,0,1,1.52,9.29s3.81,3.77,1.65,7.63c0,0-7.46,4.07-9.76,6.35s-18.42,9.72-35,14.57C1970.82,1181.7,1953.54,1181.18,1951.38,1157.31Z" transform="translate(-217.44 -15.04)"/><path class="cls-54" d="M1970.82,1181.7s-20.58,3.46-27.56-.41,1.15-24,1.15-24l13-7.58Z" transform="translate(-217.44 -15.04)"/><path class="cls-55" d="M1978.46,1148.82s-.31,9.69-1.83,12.37,19,6.84,19,6.84S1990.69,1149.5,1978.46,1148.82Z" transform="translate(-217.44 -15.04)"/><path class="cls-56" d="M2000.92,1123s-22.48,10.5-21.17,14.2,4.12,4.28,4.12,4.28l-7.21,8.36s-1.53,8.14,8.12,7.36c0,0-2.24,7.45,7,5.64,0,0,.8,5.55,5.23,5.43s18.6-7.45,18.6-7.45,2.56-3-1.35-7.76c0,0,2.78-5.18-1.45-9.31,0,0,1.29-6.68-3.32-11.09,0,0,.47-7.45-6.16-10.61C2003.31,1122,2001.86,1122.51,2000.92,1123Z" transform="translate(-217.44 -15.04)"/><path class="cls-54" d="M1961.84,1136.75s17.14.35,26.41,4.5c2.1.94,4,2.22,3.84,4.45s-3.61,4.89-11,5.11-16.94,3.76-16.94,3.76S1956.39,1152.63,1961.84,1136.75Z" transform="translate(-217.44 -15.04)"/><path class="cls-54" d="M2009.47,1132.62s-25.66,8.45-27.41,10.49-5-7-3.42-8.61,21.59-11.9,23.79-12.47S2012.18,1126.42,2009.47,1132.62Z" transform="translate(-217.44 -15.04)"/><path class="cls-54" d="M1997.66,1123.06s39.95-7.87,40.77-3.19-3.06,5.47-35.8,14.67C1970.79,1143.48,1997.66,1123.06,1997.66,1123.06Z" transform="translate(-217.44 -15.04)"/><path class="cls-57" d="M1723.07,1911.73s12.73,18.34,30.59,22.3,35.46,10.26,35.6,21.11-51.65,17.31-72.09,6.38c-30.51-16.32-33.61-11.4-37-19.56s4.06-30,3.84-32.57C1683.75,1906.18,1723.07,1911.73,1723.07,1911.73Z" transform="translate(-217.44 -15.04)"/><path class="cls-58" d="M1721.09,1902.69s2.32,8.85,2,9-40.26,4.76-39-2.34c1-5.77,2.38-12,2.38-12Z" transform="translate(-217.44 -15.04)"/><path class="cls-57" d="M1588.76,1910.52s9.08,17.53,24.6,23.51c16.59,6.38,29.9,13.72,29.59,24.29s-40.55,21.28-69.83,1c-18.51-12.82-24.37-12.88-27.34-21s5.16-29,5-31.58C1550.69,1903.66,1588.76,1910.52,1588.76,1910.52Z" transform="translate(-217.44 -15.04)"/><path class="cls-58" d="M1589.21,1901.41s-.11,8.94-.45,9.11-38.91,3.22-37.93-3.73a55.12,55.12,0,0,1,3.74-12.2Z" transform="translate(-217.44 -15.04)"/><path class="cls-59" d="M1730.64,1365.66s35.83,152.1,44,198.44c7,39.43,12.52,80.49,9.19,109-4.14,35.25-56,217.91-53.82,228.25s-61.81,4-61.81,4,47-206.15,39.12-244.08c-5.84-28.08-56.95-214.66-64.78-205.09s-17.55,176.08-23.35,203.73-23.61,246-23.61,246-39.82,5.65-50.46-3c0,0-4.84-186.5-1.15-238.32,1.41-19.75-24-236.8,8.6-324.19C1569.83,1294.27,1730.64,1365.66,1730.64,1365.66Z" transform="translate(-217.44 -15.04)"/><path class="cls-52" d="M1964.65,1189.2s-124.13,26.49-148.84,20.64c-11.42-2.71-26.46-17.88-40.75-35.71-4.71-5.87-9.33-12-13.73-18.14v0c-17.54-24.37-31.28-47.72-31.28-47.72s-51.83-58.46-10.24-84.52c0,0,15.09-5.44,29,8.86s30.15,44.21,33.78,51.84,54.55,78.28,57.19,79.87,24.88-4,42.72-5.47c29.09-2.33,72.67-13.23,72.67-13.23Z" transform="translate(-217.44 -15.04)"/><path class="cls-60" d="M1680.9,1010.69s53.36,10.62,59.69,16c6.87,5.74,19,62,19.71,77.65s-6.43,81.1-13.3,105.47-5.61,144.4-1.27,178.17c0,0-107.44,29.36-213.07,16.13,0,0,17.71-126.27,13.48-159.67-5.42-42.78-18.45-141.34-18.45-141.34s9.35-68.65,18.76-76.31,74.21-16.12,74.21-16.12Z" transform="translate(-217.44 -15.04)"/><path class="cls-54" d="M1658.84,851.92S1723,829.06,1719,911.15s-19,90.42-61.28,79-45.76-63.27-51.26-88.19S1637.85,855.5,1658.84,851.92Z" transform="translate(-217.44 -15.04)"/><path class="cls-54" d="M1689.29,1021.81s-13.21,8.4-63.29-12.83c0,0,1.41-33-8.41-63.9s67.21,41.15,67.21,41.15c-.81.55-1,3.63-.5,7.93a84.38,84.38,0,0,0,2.47,12.76C1689.58,1017.23,1689.29,1012.8,1689.29,1021.81Z" transform="translate(-217.44 -15.04)"/><path class="cls-59" d="M1615.4,942.63s-.19-21.93,9.29-24,10.72-9.31,10.72-9.31l5.44,1.22s-1-3.86,8-9,63.07-.62,69.85-8.1-3-51.91-17.79-56.27-49-4-80.29,4.5c0,0-23.75,5.76-25.55,32.67C1593.94,891.85,1607.69,930.74,1615.4,942.63Z" transform="translate(-217.44 -15.04)"/><path class="cls-61" d="M1686.77,1006.92c-49.75-8-57.19-35.28-57.3-35.7,19.34,24,54.83,22.94,54.83,22.94A84.38,84.38,0,0,0,1686.77,1006.92Z" transform="translate(-217.44 -15.04)"/><path class="cls-62" d="M1684.57,1032.59s9.06,12.86,14.53,45.87,4.54,89.89,4.54,89.89l-12.59,1.48s-19.07-116-15.79-136.21Z" transform="translate(-217.44 -15.04)"/><path class="cls-54" d="M1635.41,909.37c-2.83-7.23-18.84-6.32-17.2,5.15s14.87,29.13,20.18,25.81S1639.32,919.35,1635.41,909.37Z" transform="translate(-217.44 -15.04)"/><path class="cls-52" d="M1741.27,1026.65s30.32,38.6,19.08,139.6c-20.29,182.5,32.86,475.46,32.86,475.46l-54.83,16.51s-52.4-374.5-39.06-510.42c6.08-61.94,24.13-82.55-4.34-134.15C1695,1013.65,1722.7,1015,1741.27,1026.65Z" transform="translate(-217.44 -15.04)"/><path class="cls-52" d="M1605.92,1012.8s86.79,84.37,93.59,148.32,17.87,497.1,17.87,497.1l-206.62-11.58s19-228.64,23.62-257.25,14.22-192.83-6.69-269c-11.24-40.94,2.13-92.88,27.8-98.55S1605.92,1012.8,1605.92,1012.8Z" transform="translate(-217.44 -15.04)"/><path class="cls-52" d="M1576.59,1023.73s33.42,8.86,15,67.9c-14.4,46.24-16.34,56.17-16.34,56.17l-77.13-18.54s22.61-101.58,59.52-107C1557.67,1022.22,1569.42,1020.61,1576.59,1023.73Z" transform="translate(-217.44 -15.04)"/><polygon class="cls-63" points="1612 1321.16 1460.82 1471.72 1360.4 1378.34 1507.66 1224.13 1612 1321.16"/><polygon class="cls-64" points="1597.7 1324.15 1463.43 1457.87 1374.25 1374.94 1505.04 1237.98 1597.7 1324.15"/><polygon class="cls-63" points="1566.77 1301.81 1576.19 1292.42 1540.13 1258.9 1529.3 1266.97 1566.77 1301.81"/><path class="cls-65" d="M1626,999.85s26.18,15.19,52.08,18.62l-13.78,21.15-43.66-28.93Z" transform="translate(-217.44 -15.04)"/><path class="cls-65" d="M1686.77,1006.92s-2.76,8.71-8.67,11.55l13,17.36-.48-23Z" transform="translate(-217.44 -15.04)"/><path class="cls-62" d="M1678.1,1018.47l10.25,13.75s-6.48,7.89-20.45,1.91Z" transform="translate(-217.44 -15.04)"/><path class="cls-65" d="M1775.06,1174.12h0c-4.71-5.87-9.33-12-13.73-18.14v0s1.65-44.5.21-57.28C1761.53,1098.69,1776.63,1146.62,1775.06,1174.12Z" transform="translate(-217.44 -15.04)"/><path class="cls-65" d="M1562.08,1144.63s-10.08,63.1-9.37,67.15S1507.08,1199.1,1562.08,1144.63Z" transform="translate(-217.44 -15.04)"/><rect class="cls-66" x="1502.29" y="1107" width="24.36" height="35.79"/><path class="cls-54" d="M1635.83,1293.61s2.23,4.25,5.93,5.68c6.4,2.47,16.63-1.45,20.59,7.36s-21.56,29.51-28,30.58-15.46-9-21.37-28.43S1635.83,1293.61,1635.83,1293.61Z" transform="translate(-217.44 -15.04)"/><path class="cls-54" d="M1660.57,1303.89a274.4,274.4,0,0,1,21.85,21.47c9.53,10.54,18.71,24.7,17.06,27.38-3.64,5.94-12.51-7.33-22.69-17.15-9.38-9-7.83-7.45-7.83-7.45s0-1,8.17,10.88c8.81,12.74,16.48,26.71,14.4,29.81-1,1.51-5.12,5.2-7.08-.89,1.76,2.85,2.07,2.15.89,3-6.09,4.47-22.09-12.19-28.44-18.81,4.84,5.11,7.82,9.39,2.33,9.82-6.28.5-27.79-24.09-36.38-32.14C1613.47,1321,1660.57,1303.89,1660.57,1303.89Z" transform="translate(-217.44 -15.04)"/><path class="cls-52" d="M1580.59,1027.68c7,2.61,9.64,14.56,6.77,49.2s-15.55,50.57-20.28,58.59-30.72,57.4-26,63.9,48.81,48.4,51.37,51.81,51.84,46.35,51.84,46.35l-25.1,33.74s-106.42-80-114.72-88-33.12-24.77-23.94-52.67c9.33-28.35,26.1-94.74,29.08-99.93S1534.32,1010.45,1580.59,1027.68Z" transform="translate(-217.44 -15.04)"/><path class="cls-67" d="M2499,1844.19a87.49,87.49,0,0,1-10.72,17.25c-5.14,6.46-21.13,33-28.17,34.82s-28.82,5.54-30.74,17.25-2.88,20,18.57,21,35.53,2.15,45.78-12.33,26.57-25,26.57-25V1935h8.32s3.84-39.32,6.09-42.09,8-33-11.85-48.68S2499,1844.19,2499,1844.19Z" transform="translate(-217.44 -15.04)"/><path class="cls-43" d="M2460.13,1896.26s19.2,4.62,26.57,0,32.39-45.34,40.68-47.78c0,0-8-15.69-28.36-4.29C2499,1844.19,2465.57,1889.48,2460.13,1896.26Z" transform="translate(-217.44 -15.04)"/><path class="cls-67" d="M2504.06,933s-41.41,84-12.9,89.06c39.14,6.9,55-62.7,55-62.7Z" transform="translate(-217.44 -15.04)"/><path class="cls-43" d="M2277.92,1141.8s-13-3.91-14-11.3c-.89-6.27-6.75-13.77-8.55-16.08-2.4-3.1-6.12-15.24-10.2-12.35s5.12,20.29,6.29,24.31-16.53-3.63-20.92-2.57-15.89,30-3.1,33.89,29.11,0,31.22,1.06,9.19,3.19,9.19,3.19Z" transform="translate(-217.44 -15.04)"/><path class="cls-43" d="M2233.76,1124s-40-9.44-43.17-7.92-3.62,3.63.08,4.66S2229,1131,2229,1131s-49.25-3.52-52.16-2.83c-1.71.4-2.74,4.45-.81,5.18s50.53,6.91,50.53,6.91-46-3.21-48.25-1.94a3,3,0,0,0,1.44,5.53c3.39.46,45.9,5.76,45.9,5.76s-33.62-.31-34.87,1.85c-.77,1.33-1.83,4.79,6.85,4.6s29.21,1.46,29.21,1.46Z" transform="translate(-217.44 -15.04)"/><path class="cls-67" d="M2606.39,1868.68s-21.45,30.66-30.09,38c0,0-19.21,6.78-21.13,19.72s-1.6,21.57,21.13,22.18,37.63-3.31,41.79-16.55a60,60,0,0,1,13.27-22.27v27.73h5.12s1.29-26.81,1.61-31.74,3.67-23.88-7.13-32.27S2606.39,1868.68,2606.39,1868.68Z" transform="translate(-217.44 -15.04)"/><path class="cls-59" d="M2620.8,1277s27.08,33.88,34.43,74.09-4.34,175.13-4,195,19.53,69.32,15.69,106.75-19,223.73-19,223.73l-41.5-7.93s2.4-189.92,0-205.63-7.22-73-8.18-79.46-61-176.34-61-205.33S2555.49,1229.75,2620.8,1277Z" transform="translate(-217.44 -15.04)"/><path class="cls-59" d="M2484.74,1290.28s-44.49,163.43-49.78,186.08-12.93,41.31-12.93,50.93c0,22.3,8.61,58.12,8.61,58.12l56.51,260.07H2541s-30-156-30.79-186.53-25.27-74-20.46-86.94,77.31-162.2,77.31-162.2S2621.92,1242.84,2484.74,1290.28Z" transform="translate(-217.44 -15.04)"/><path class="cls-43" d="M2576.3,1906.73s22,11.82,36.11-3.36c11.94-12.81,18.55-29.84,18.55-29.84l-24.57-4.85Z" transform="translate(-217.44 -15.04)"/><path class="cls-52" d="M2503.12,1012.55s-18.34,1.67-32.21,16-26.87,37.08-30.5,44.71-54.52,78.27-57.16,79.85-24.89-4-42.71-5.47C2311.46,1145.27,2268,1131,2268,1131l-6.46,31.63s107,33.23,131.69,27.37c30.2-7.16,99.71-93,99.71-93S2544.71,1038.6,2503.12,1012.55Z" transform="translate(-217.44 -15.04)"/><path class="cls-68" d="M2535.14,1000.17s-23.77,10.79-32,12.38-40.27,41.61-45.88,56.22,0,36.53,11.56,62.25.66,34.31,5.94,60,3.58,122,2.59,136.27,154.48,36,185.18,9.91c0,0-20.78-86.74-45.38-111.49-5.32-5.36-4.76-41-1.13-49.93s44.56-75.28,44.56-75.28,3-67.33-14.86-80.67c-15.51-11.6-57.79-15.73-65.38-18.27S2550.65,997.94,2535.14,1000.17Z" transform="translate(-217.44 -15.04)"/><path class="cls-43" d="M2523.79,973.78s4.74,42,3.76,55.61c0,0,24.69,23.81,52.77-27.8,0,0-11.82-21.27-2.92-50.26S2523.79,973.78,2523.79,973.78Z" transform="translate(-217.44 -15.04)"/><path class="cls-69" d="M2454.67,1140.51s-5.94-38,.38-61.18c0,0,0,19.89,11.33,48.15Z" transform="translate(-217.44 -15.04)"/><path class="cls-70" d="M2596.75,895.07s5.45-6.3,7.48,0-4.62,25.19-5.36,27.92c0,0-3.3,10.58-4.62,9.23S2596.75,895.07,2596.75,895.07Z" transform="translate(-217.44 -15.04)"/><path class="cls-70" d="M2501.57,895.85s-5.45-6.3-7.48,0,4.62,25.19,5.35,27.92c0,0,3.31,10.57,4.62,9.22S2501.57,895.85,2501.57,895.85Z" transform="translate(-217.44 -15.04)"/><path class="cls-70" d="M2540.61,834.8s-50,7.41-42.69,83.21,51.46,69.79,54.41,69.73,44.28,1.57,47.85-90.93C2600.18,896.81,2601.85,828.41,2540.61,834.8Z" transform="translate(-217.44 -15.04)"/><path class="cls-67" d="M2590.59,892.28s-55.51,15.89-82.08,10.81c0,0-1.69,9.43-5.51,10s-5.77-18-5.77-18-1.3-61.65,56.65-62.23,46.18,66.77,46.18,66.77l-.79,11.52S2591,914.28,2590.59,892.28Z" transform="translate(-217.44 -15.04)"/><path class="cls-71" d="M2572,980.5s-17.51,16-44.44,1.32c0,0,7.95,12.79,23,12.47S2572,980.5,2572,980.5Z" transform="translate(-217.44 -15.04)"/><path class="cls-43" d="M2599.29,1005.25s-17,48.29-63.62,44.73-22.11-40.76-22.11-40.76,11.63-6.42,14.9-7S2580,1001,2580,1001Z" transform="translate(-217.44 -15.04)"/><path class="cls-52" d="M2513.56,1009.22s-24.42,65-24.42,131.29-2,174.23-10.5,208.32-32.8,139.52-32.8,139.52l-19-9.47s45.75-168.26,49.21-180.4-2.63-140.31-5.91-151-17.23-58.51-15.06-71.76c2.73-16.71,19-41.43,45.22-62.69Z" transform="translate(-217.44 -15.04)"/><path class="cls-52" d="M2590.08,1003.22a654.82,654.82,0,0,0-22.88,106.7c-7.69,59.92,23.62,338,44.61,401.16l81.35-12.63s-17.51-196.58-41.28-232.36-31.34-67.42-5.67-142.09S2635,1012.35,2635,1012.35,2597.21,1004,2590.08,1003.22Z" transform="translate(-217.44 -15.04)"/><polygon class="cls-63" points="2284.87 1186.57 2383.51 1350.97 2493.16 1290.05 2398.81 1123.27 2284.87 1186.57"/><polygon class="cls-64" points="2296.76 1192.22 2384.36 1338.24 2481.74 1284.13 2397.95 1136.01 2296.76 1192.22"/><polygon class="cls-63" points="2329.08 1179.11 2322.93 1168.86 2362.3 1146.98 2369.99 1156.38 2329.08 1179.11"/><path class="cls-43" d="M2551.22,1310.8s4.49,0,6.45-.9c0,0,3.45-1.92,6-3.15a21.64,21.64,0,0,1,2-.86c2-.67,6.64-1.56,11-4.48s19.8-20.11,19.8-20.11l-7.29-10.68-5.35-10.93s-32.43,2-36.82,4.28a11.67,11.67,0,0,0-1.21.71c-3.52,2.26-5.16,5.36-6.87,6.75-.62.51-6.47,6-6.26,8.37a7.65,7.65,0,0,0,3.88,6.47s.84,6.35,4.09,9.31c0,0,.58,5.88,5.72,8.46C2546.34,1304,2547.62,1309.94,2551.22,1310.8Z" transform="translate(-217.44 -15.04)"/><path class="cls-52" d="M2618.06,1012.55s30-8.26,47.12,23.51,17.08,45.31,19.37,60.82c2.17,14.65,11.94,54.63,12.93,58.76s23.14,53.36,13,70.57-113.88,68.22-113.22,72-17.95-38.5-17.95-38.5,41.95-22.5,48.82-29.42c11.16-11.26,34.7-23.38,29.86-37.34-5.68-16.4-22.74-71.73-26.7-79.83S2592.81,1022.87,2618.06,1012.55Z" transform="translate(-217.44 -15.04)"/></g></g></svg>