<svg xmlns="http://www.w3.org/2000/svg" viewBox="0 0 897.21 472.22"><defs><style>.cls-1,.cls-2,.cls-3{fill:#2c51a0;}.cls-2,.cls-3{stroke:#2c51a0;}.cls-3{stroke-width:2px;}</style></defs><title>Recurso 2</title><g id="Capa_2" data-name="Capa 2"><g id="Capa_3" data-name="Capa 3"><path class="cls-1" d="M401.82,20A64,64,0,0,0,399,31.4c-3.61,34.8-45.69,57.81-86.3,80-10.85,5.93-21.6,11.81-31.64,18.23C267.78,107,258.61,86.14,263.84,67c13-47.74,57.07-58.58,57.2-58.61a55.57,55.57,0,0,0,10.16-5c3.84-2.27,5.5-3.75,3.72-3.3-.2.05-70.7,17.56-86.33,75-5.38,19.74,4.39,41.2,18.25,64.56C247.73,154.32,233,172.65,228,199.86c-6.51-11-16-17.47-28.78-20.17a2.65,2.65,0,0,1-2-1.76q-14.82-41.15-29.65-82.28-.39-9.23-.79-18.44a1.33,1.33,0,0,1,.15-.68c1-2,2-3.93,3-5.93l.12-.23.06-.26c.75-2.89.37-6.41-2.05-8.39a6.13,6.13,0,0,0-6.29-.68L116.45,78.23l-.12,0-.12.06c-2.75,1.37-4.81,4-4.5,7.31a7.22,7.22,0,0,0,4.3,5.77l0,0,0,0L122.26,94a1.34,1.34,0,0,1,.56.44l9.94,13.1,4.3,12.21a1.4,1.4,0,0,1-.41,1.55l-15.53,13-.06,0,0,.05c-5,4.63-6.54,10.8-4.4,16.86a1.41,1.41,0,0,1-.37,1.52,171,171,0,0,0-37.7,49.91C69.45,221,63.38,241.55,63,262.14A166.4,166.4,0,0,0,71.26,319a205.44,205.44,0,0,0,16.87,36.79,2.84,2.84,0,0,1-.91,3.78,65.71,65.71,0,0,0-6.64,4.88A258.75,258.75,0,0,1,0,247.83c18.24,82,78.19,147.64,155.63,172A77.73,77.73,0,0,0,146.94,447c3.48,1,14.77-2.95,15.06-6.2a81.14,81.14,0,0,1,3.89-17.93,222.3,222.3,0,0,0,56.61,7.3c5.22,0,10.4-.19,15.53-.54l0,.06c0,.07.28,0,.67-.12a221.27,221.27,0,0,0,48.9-9.13C267.1,447.72,230,456.94,229.91,457c-3,.75-6.82,13.48-.44,15.25,11.42-3.8,44.94-17.64,63.11-53.4a223,223,0,0,0,39.12-17.3A244,244,0,0,1,295,413.63a107.65,107.65,0,0,0,5.31-15c6.81-25-2.16-47.41-15.59-70.72,26.11-16.82,46.31-35.94,49.3-63.08,4.68-42.51-19.19-80.7-40.64-115-2.14-3.44-4.26-6.83-6.33-10.19,6.91-3.95,14.1-7.88,21.33-11.83,43.67-23.88,88.92-48.63,95.28-110.06C404,15.22,403.12,16.23,401.82,20ZM121.48,281.1c-13.18-34.23-11-66.3,11.23-96.26a8.92,8.92,0,0,0,6.09.91l20.63-.57a1.32,1.32,0,0,1,1.32,1c.59,1.83,1.17,3.67,1.76,5.51a2.75,2.75,0,0,1-.45,2.58c-9.4,12.33-10.95,25.64-7.8,40.37a2.71,2.71,0,0,0,1.29,1.82,2.55,2.55,0,0,0,2.17.24l13.5-4.45a.78.78,0,0,1,.9.31l6.77,9.59a.72.72,0,0,0,.42.31c2.74.84,5.39,2,8.13,2.81a.79.79,0,0,0,.48,0l1.92-.63a.8.8,0,0,1,1,.53l1.82,5.63a2.69,2.69,0,0,0,3.38,1.77l12.77-4.17a2.65,2.65,0,0,0,1.59-1.38,2.77,2.77,0,0,0,.15-2.15l-1.78-5.53a.8.8,0,0,1,.05-.64.78.78,0,0,1,.47-.42l1.88-.61a.8.8,0,0,0,.45-.36l4-6.75a.79.79,0,0,0,.12-.42l.19-14.45a.82.82,0,0,1,.5-.76l10.2-4.23a113.8,113.8,0,0,0,4.25,39.65L124.76,282.74A2.68,2.68,0,0,1,121.48,281.1Zm90.23,67.26a234,234,0,0,0-34.23-5.31l-12.78-7.66L162,325.15a2.77,2.77,0,0,1,.29-2.16c5.44-9.26,4.4-21.54,4.56-32.28a2.74,2.74,0,0,1,1.9-2.62l67.64-21.65c8.12,20.24,20,39.23,31.18,57.15q2.87,4.59,5.65,9.07c-9.1,5.74-18.91,11.11-28.81,16.52-3.83,2.1-7.68,4.2-11.51,6.32A115.55,115.55,0,0,0,211.71,348.36Zm25,67.7a6.18,6.18,0,0,0-.12-3.31H249.8a44.68,44.68,0,0,1,5.11,7.24q-6.87.51-13.82.62A38.49,38.49,0,0,0,236.7,416.06Zm-61.52-3.31h44.08a46.44,46.44,0,0,1,4.47,2.36,6.67,6.67,0,0,0,4.73,5.4A244.56,244.56,0,0,1,175.18,412.75Zm123.46-14.58a64.2,64.2,0,0,1-7,16.29A244.24,244.24,0,0,1,257,419.82c.76-.34,1.68-.79,2.67-1.33,2.35-1.27,4.15-2.49,4-2.72a45.53,45.53,0,0,0-5.41-7.71l.71-1.5.47,0,2.68.25.26-2.75a61.69,61.69,0,0,0,.19-8.91,52,52,0,0,1,12.09,13.7c.15.25,2.33-.67,4.88-2.05s4.47-2.69,4.33-2.94a55.86,55.86,0,0,0-23.6-21c-4.07-11.94-13-20-23.85-25.66-.51-.27-1-.52-1.55-.77q5.49-3.06,11-6.05c9.7-5.31,19.32-10.57,28.46-16C290.21,360.14,302.79,382.92,298.64,398.17ZM278.2,158.08c21.42,34.27,45.25,72.4,40.57,114.9-2.55,23.24-16.57,39.31-35.26,52.78-3.56-6.07-7.39-12.2-11.31-18.47-8.8-14.07-18-28.81-25.47-44.16l1.19-.38a2.63,2.63,0,0,0,1.61-1.4,2.75,2.75,0,0,0,.14-2.16l-3.62-10.74a2.67,2.67,0,0,0-3.32-1.75l-2.81.85c-5-12.87-8.27-26.15-8.77-39.81a2.79,2.79,0,0,0-.06-2,93.79,93.79,0,0,1,.54-12c1.87-16.95,18.57-31.42,40.61-45.26Q275.16,153.24,278.2,158.08Zm37.55-74.94a37.17,37.17,0,0,1,8.06,10c.11.19-1.3,1.15-3.15,2.15s-3.43,1.66-3.54,1.48a36.56,36.56,0,0,0-6.89-8.87,6.79,6.79,0,0,1-7.45-5.66,47.5,47.5,0,0,0-5.25-2.73c-8-3.54-16.8-4.79-24.43-3l.26-1,.37-.22a25.31,25.31,0,0,1,4.47-2.19c8.16-2.18,17.59-1,26,2.72l1.15.53a6.68,6.68,0,0,1,5.66-1A6.55,6.55,0,0,1,315.75,83.14ZM309.28,65.5l0,0a6.64,6.64,0,0,1-5.48.83,6.75,6.75,0,0,1-4.58-4.22A45.56,45.56,0,0,0,277,62l.18-.63A19,19,0,0,1,279,60.16a31.52,31.52,0,0,1,5.69-2.79,44.4,44.4,0,0,1,15.45-1.18,6.62,6.62,0,0,1,7-2.16,6.73,6.73,0,0,1,4.67,4.54,58.24,58.24,0,0,1,6,2.26c10.4,4.61,19.63,12.27,25,22,.14.23-1.66,1.45-4,2.73s-4.36,2.11-4.5,1.88C328.89,77.75,319.67,70.11,309.28,65.5Zm27.26-16.78c.87.35,1.72.72,2.56,1.12A55.88,55.88,0,0,1,362.91,71c.15.25-1.79,1.57-4.33,3s-4.72,2.29-4.87,2a55.39,55.39,0,0,0-21.54-20,6.82,6.82,0,0,1-8-3.43c-14.05-4.74-29.58-4.26-32.2-4.14l.21-.79A31,31,0,0,1,294.83,46a25.12,25.12,0,0,1,5.66-2.61,104.2,104.2,0,0,1,24.82,2,6.76,6.76,0,0,1,11.23,3.36ZM311.61,261.57l.21.38-.27,1c-5.66-5.46-13.87-8.93-22.52-10a48.54,48.54,0,0,0-5.9-.36,6.61,6.61,0,0,1-6.95,2.17,6.8,6.8,0,0,1-2.32-1.14,36,36,0,0,0-10.42,4.06c-.18.1-1.2-1.29-2.29-3.11s-1.8-3.36-1.62-3.46a36.4,36.4,0,0,1,12-4.39,6.47,6.47,0,0,1,8-4.24,6.73,6.73,0,0,1,4.38,3.74c.42,0,.84.08,1.25.14,9.1,1.14,17.81,5,23.72,11.07A25.51,25.51,0,0,1,311.61,261.57Zm-74.47-49.69A55.1,55.1,0,0,1,268.31,206c.92.09,1.84.21,2.76.35a6.77,6.77,0,0,1,11.36,2.91,104.25,104.25,0,0,1,22.33,11.11,24.75,24.75,0,0,1,3.55,5.15c.64,1.14,1.14,2.12,1.43,2.8l-.21.79c-2.19-1.46-15.3-9.88-29.77-13.06a6.83,6.83,0,0,1-8.62-1.18,54.76,54.76,0,0,0-28.62,6c-.26.14-1.67-1.77-3.15-4.27S236.88,212,237.14,211.88Zm61.42,19.68a44.9,44.9,0,0,1,12.68,9,32.25,32.25,0,0,1,3.48,5.33c.43.8.75,1.45.95,1.93l-.17.63a45.89,45.89,0,0,0-19.08-11.3,6.7,6.7,0,0,1-6.08,1.27,6.79,6.79,0,0,1-4.29-3.54H286c-11.27-1.41-23.06.4-32.54,6-.24.12-1.54-1.64-2.92-4s-2.29-4.28-2.06-4.41c9.52-5.63,21.34-7.45,32.6-6a60,60,0,0,1,6.29,1.14,6.76,6.76,0,0,1,11.19,4Z"/><path class="cls-2" d="M668,217.18c-1.17,10.88-3.65,24.84-10.44,35.3-7.83-9.63-20-24.28-30.8-37.82v-.42c17.36-8.93,23.62-17.44,23.62-28.88,0-12.42-7.7-20.38-17.62-20.38-13.31,0-21.14,11.72-21.14,24.42,0,7.4,3,14.94,8.74,23.31v.42c-10.83,6.84-19.45,16.74-19.45,31.26,0,16.75,12,29.33,26.89,29.33,10.31,0,19.32-3.24,29.76-14.4,4.83,5.16,8.49,9.07,11.75,12.7h6.27c-5.88-6.56-10.19-11.16-15.28-16.75,8-10.18,10.44-25.81,12.14-38.09Zm-38.89,52.47c-13.71,0-23.37-11.17-23.37-25.68s10.44-23.16,17.1-27.21c13.18,16.74,26.24,32.37,32,39.49-4.31,5.3-13,13.4-25.71,13.4ZM631.83,169c10.18,0,13.83,9.21,13.83,16.89,0,11.44-8.74,18.14-21.27,25-3.92-6-8.09-12.56-8.09-22.05,0-10.19,5.35-19.82,15.53-19.82Z"/><path class="cls-3" d="M580.58,202.31c0-61.4-35.87-67.83-48.11-67.83-32.54,0-46.17,22.51-51.73,35.67h-.55c-5.85-20.17-22-35.67-42.83-35.67-24.48,0-39.22,12.87-49.23,32.45h-.56L386.74,138h-9.46c.84,12,1.12,21.93,1.12,35.37V294.7h9.73V197.63c0-24.56,20.3-54.38,47.28-54.38,25.58,0,39.21,23.1,39.21,52.63V294.7h9.74V193.25c0-24,20.58-50,45-50,27.81,0,41.44,23.1,41.44,60.23V294.7h9.73V202.31Z"/><path class="cls-3" d="M896.21,202.31c0-61.4-35.88-67.83-48.11-67.83-32.54,0-46.17,22.51-51.73,35.67h-.56C790,150,773.84,134.48,753,134.48c-24.47,0-39.21,12.87-49.22,32.45h-.56L702.37,138h-9.46c.84,12,1.11,21.93,1.11,35.38V294.7h9.74V197.63c0-24.56,20.3-54.38,47.28-54.38,25.58,0,39.21,23.1,39.21,52.63V294.7H800V193.25c0-24,20.58-50,45.06-50,27.81,0,41.43,23.1,41.43,60.23V294.7h9.74V202.31Z"/><path class="cls-2" d="M877.92,348l4.28-12.18c.72-2.16,1.14-3.55,1.76-5.88h.09c.46,1.92,1,3.59,1.76,6L890,348Zm6.67-20.22H883.5l-11.74,33.9h1.51l4.19-12.33h13l4.28,12.33h1.47l-11.62-33.9Zm-38.92,1.71a28.64,28.64,0,0,1,6.12-.63c10.37,0,15.19,5.83,15.19,15.15,0,10-5.24,16.63-16,16.63a29.33,29.33,0,0,1-5.33-.35v-30.8Zm-1.46,32.19c2.34.23,4.57.23,6.79.23,5.49,0,17.53-1.75,17.53-18,0-11.18-6.54-16.37-16.48-16.37a49.87,49.87,0,0,0-7.84.72v33.4ZM841,327.75H818.32v1.39h10.62v32.51h1.47V329.14H841v-1.39Zm-22,32.51H804.66V327.75h-1.47v33.9H819v-1.39Z"/><path class="cls-3" d="M765.28,309.39c13.28,0,19,13.63,19,25.14,0,13.64-7,25.79-19.42,25.79s-19.16-13.64-19.16-25c0-12.57,6.08-25.92,19.55-25.92Zm.07-2.05c-12.29,0-22.07,10.24-22.07,28,0,17,9.65,27,21.54,27,11,0,21.93-9.06,21.93-28.06,0-16.53-8.91-27-21.4-27Zm-28.08,50.29a24.47,24.47,0,0,1-11.49,2.62c-13.81,0-21.94-9.89-21.94-24.94,0-15.89,8.66-26,22.8-26a21.31,21.31,0,0,1,10.3,2.4l.93-2.05c-1.59-.85-5.09-2.33-11.43-2.33-16.12,0-25,12.29-25,27.76,0,19.5,11.76,27.2,23.19,27.2,6.14,0,11-1.35,13.61-2.76l-.93-1.91ZM690,361.52h2.31V308.11H690v53.41Zm-5.09-53.41H649.2v2.2h16.72v51.21h2.31V310.31h16.65v-2.2ZM644.78,310c-1.52-1.2-4.95-2.61-9.51-2.61-8,0-13.88,5.44-13.88,13.14,0,7.2,4.69,11.58,12.75,14.62,7.34,3,10.18,6.78,10.18,13.14,0,6.78-4.69,12-12.62,12a17.94,17.94,0,0,1-10.57-3.54l-1.19,2c2.77,2.19,7.53,3.61,11.63,3.61,10,0,15.19-6.64,15.19-14.35,0-8.05-4.42-11.86-12.55-15.4-7.4-3.17-10.44-6.49-10.44-12.71,0-4.45,3-10.45,11.5-10.45a13.3,13.3,0,0,1,8.32,2.54l1.19-2Zm-50.48-9.78h2.05l9.71-8.83h-4.42l-7.34,8.83Zm-1.71,9.22c13.28,0,19,13.63,19,25.14,0,13.64-7,25.79-19.43,25.79S573,346.68,573,335.31c0-12.57,6.07-25.92,19.55-25.92Zm.07-2.05c-12.29,0-22.07,10.24-22.07,28,0,17,9.65,27,21.54,27,11,0,21.93-9.06,21.93-28.06,0-16.53-8.92-27-21.4-27Zm-31.12.77h-2.31v28.3c0,8.41,0,14.22.46,21.36l-.13.14a183,183,0,0,0-9.32-16.41l-20.68-33.39h-2.18v53.41h2.32V332.8c0-11.82,0-15.15-.4-20.73l.2-.07c2.57,5.37,5.88,10.61,9.64,16.84l20.09,32.68h2.31V308.11Zm-44.73,27.62H502.28v2.19h12.09v19.92c-2.11,1.21-5.48,2.19-11.17,2.19C488.34,360,481,348.17,481,335c0-14.84,8.65-25.36,23.05-25.36a22.62,22.62,0,0,1,10.44,2.33l.93-2a27.3,27.3,0,0,0-11.24-2.33c-17.24,0-25.63,12.86-25.63,27.34,0,16,8.66,27.13,24.05,27.13a34.85,34.85,0,0,0,14.2-2.9V335.73ZM445.2,340l6.74-19.19c1.12-3.4,1.78-5.59,2.77-9.27h.13c.73,3,1.52,5.66,2.78,9.41L464.23,340Zm10.5-31.86H454l-18.5,53.41h2.38l6.6-19.43H465l6.74,19.43H474l-18.3-53.41Zm-31.11,53.41h2.31V308.11h-2.31v53.41Zm-45-50.72a46.07,46.07,0,0,1,9.64-1c16.32,0,23.92,9.18,23.92,23.88,0,15.75-8.26,26.2-25.17,26.2a46.39,46.39,0,0,1-8.39-.56V310.8Zm-2.32,50.72c3.7.36,7.21.36,10.71.36,8.65,0,27.61-2.77,27.61-28.34,0-17.58-10.3-25.78-26-25.78a81.52,81.52,0,0,0-12.36,1.13v52.63Z"/></g></g></svg>